<svg height="512" viewBox="0 0 56 60" width="512" xmlns="http://www.w3.org/2000/svg"><g id="Page-1" fill="none" fill-rule="evenodd"><g id="003---Eiffel-Tower" fill-rule="nonzero"><path id="Shape" d="m28 4c-.5522847 0-1-.44771525-1-1v-2c0-.55228475.4477153-1 1-1s1 .44771525 1 1v2c0 .55228475-.4477153 1-1 1z" fill="#3b97d3"/><path id="Shape" d="m31 8 1-3-1-2h-3-3l-1 2 1 3 3 2z" fill="#2980ba"/><path id="Shape" d="m40 42-4-7-4-2-2 2 2 7 4 2z" fill="#3b97d3"/><path id="Shape" d="m46.59 53.27-.24-.32-5.35-6.95-9-2h-8l-9 2-5.35 6.95-.24.32-4.41 5.73h13l2.53-5.48c2.1199805-1.6853401 4.7623313-2.5767356 7.47-2.52 2.7076687-.0567356 5.3500195.8346599 7.47 2.52l2.53 5.48h13z" fill="#3b97d3"/><path id="Shape" d="m27.46 25.15.54-2.15.54 2.15 1.46 5.85 1 2 4-2-.9-4.26-1.62-7.72-.51-2.43-.97-4.59-3-2-3 2-.97 4.59-.51 2.43-1.62 7.72-.9 4.26 3 2 2-2z" fill="#3b97d3"/><path id="Shape" d="m18 59h-13l4.41-5.73z" fill="#2980ba"/><path id="Shape" d="m21.45 51.53-.25.53-11.55.89 5.35-6.95z" fill="#2980ba"/><path id="Shape" d="m46.35 52.95-11.55-.89-.25-.53 6.45-5.53z" fill="#2980ba"/><path id="Shape" d="m51 59h-13l8.59-5.73z" fill="#2980ba"/><path id="Shape" d="m16 42 4-7 4-3 2 3-2 7-3 2z" fill="#3b97d3"/><path id="Shape" d="m35.47 53.52c-2.1199805-1.6853401-4.7623313-2.5767356-7.47-2.52-2.7076687-.0567356-5.3500195.8346599-7.47 2.52l.67-1.46.25-.53 2.55-5.53h8l2.55 5.53.25.53z" fill="#285680"/><path id="Shape" d="m43 42-2 4h-6-20l-2-4z" fill="#2fa8cc"/><path id="Shape" d="m38 31-2 4h-4-12l-2-4z" fill="#2fa8cc"/><path id="Shape" d="m27.46 25.15-1.46 5.85h-5l.9-4.26z" fill="#2980ba"/><path id="Shape" d="m32.48 19.02-4.48 2.98v-7l3.97 1.59z" fill="#2980ba"/><path id="Shape" d="m28 15v7l-4.48-2.98.51-2.43z" fill="#2980ba"/><path id="Shape" d="m35 31h-5l-1.46-5.85 5.56 1.59z" fill="#2980ba"/><path id="Shape" d="m31 12 3-4h-6-6l3 4z" fill="#2fa8cc"/><g fill="#67b9cc"><path id="Rectangle-path" d="m22 42h2v4h-2z"/><path id="Rectangle-path" d="m17 42h2v4h-2z"/><path id="Rectangle-path" d="m32 42h2v4h-2z"/><path id="Rectangle-path" d="m37 42h2v4h-2z"/><path id="Rectangle-path" d="m21 31h2v4h-2z"/><path id="Rectangle-path" d="m25 31h2v4h-2z"/><path id="Rectangle-path" d="m29 31h2v4h-2z"/><path id="Rectangle-path" d="m33 31h2v4h-2z"/></g><path id="Shape" d="m55 60h-54c-.55228475 0-1-.4477153-1-1s.44771525-1 1-1h54c.5522847 0 1 .4477153 1 1s-.4477153 1-1 1z" fill="#35495e"/><path id="Rectangle-path" d="m27 42h2v4h-2z" fill="#67b9cc"/></g></g></svg>